<svg width="24" height="23" viewBox="0 0 24 23" fill="none" xmlns="http://www.w3.org/2000/svg">
<g clip-path="url(#clip0_1_376)">
<path d="M13.2336 0.00141546C14.1092 -0.00180594 14.9849 0.00663128 15.8603 0.0267245L16.0931 0.0347773C16.3619 0.0439806 16.627 0.0554846 16.9474 0.0692895C18.2242 0.12681 19.0953 0.320078 19.8597 0.604229C20.6516 0.896432 21.3188 1.29217 21.986 1.9318C22.596 2.50655 23.0681 3.20179 23.3695 3.96917C23.6659 4.70198 23.8675 5.53832 23.9275 6.76236C23.9419 7.06837 23.9539 7.32376 23.9635 7.58145L23.9707 7.80463C23.992 8.64349 24.0012 9.48261 23.9983 10.3217L23.9995 11.1799V12.687C24.0024 13.5265 23.9932 14.3659 23.9719 15.2052L23.9647 15.4284C23.9551 15.6861 23.9431 15.9403 23.9287 16.2475C23.8687 17.4715 23.6647 18.3067 23.3695 19.0395C23.0691 19.8077 22.5968 20.5035 21.986 21.078C21.386 21.6628 20.6604 22.1154 19.8597 22.4044C19.0953 22.6886 18.2242 22.8819 16.9474 22.9394C16.627 22.9532 16.3619 22.9647 16.0931 22.9739L15.8603 22.9808C14.9849 23.0012 14.1093 23.0101 13.2336 23.0073L12.3385 23.0084H10.7677C9.8921 23.0112 9.01646 23.0024 8.14108 22.9819L7.90829 22.975C7.62343 22.9651 7.33864 22.9536 7.05393 22.9405C5.7772 22.883 4.90604 22.6874 4.14048 22.4044C3.33974 22.1161 2.61444 21.6634 2.01539 21.078C1.40467 20.5031 0.932114 19.8075 0.63066 19.0395C0.334275 18.3067 0.132686 17.4715 0.0726886 16.2475C0.0593248 15.9745 0.0473253 15.7015 0.0366905 15.4284L0.0306909 15.2052C0.00856838 14.366 -0.00143218 13.5265 0.000692365 12.687V10.3217C-0.00265662 9.48261 0.00614386 8.6435 0.0270911 7.80463L0.0354906 7.58145C0.0450901 7.32376 0.0570895 7.06837 0.0714887 6.76236C0.131486 5.53717 0.333075 4.70313 0.62946 3.96917C0.931092 3.20141 1.40458 2.50636 2.01659 1.93295C2.61523 1.34711 3.34007 0.89364 4.14048 0.604229C4.90604 0.320078 5.776 0.12681 7.05393 0.0692895L7.90829 0.0347773L8.14108 0.0290254C9.01605 0.00782665 9.89129 -0.0017611 10.7665 0.000265132L13.2336 0.00141546ZM12.0001 5.75345C11.2051 5.74267 10.4159 5.88347 9.67817 6.16768C8.94047 6.45188 8.26904 6.87381 7.70291 7.40895C7.13678 7.94409 6.68723 8.58177 6.38039 9.28493C6.07355 9.98809 5.91554 10.7427 5.91554 11.5049C5.91554 12.2671 6.07355 13.0217 6.38039 13.7249C6.68723 14.4281 7.13678 15.0657 7.70291 15.6009C8.26904 16.136 8.94047 16.5579 9.67817 16.8421C10.4159 17.1263 11.2051 17.2672 12.0001 17.2564C13.5913 17.2564 15.1173 16.6504 16.2425 15.5716C17.3677 14.4929 17.9998 13.0299 17.9998 11.5043C17.9998 9.9788 17.3677 8.51575 16.2425 7.43703C15.1173 6.35832 13.5913 5.75345 12.0001 5.75345ZM12.0001 8.05427C12.4783 8.04582 12.9534 8.12881 13.3978 8.29839C13.8421 8.46797 14.2468 8.72074 14.5881 9.04194C14.9294 9.36314 15.2005 9.74632 15.3856 10.1691C15.5707 10.5919 15.6661 11.0458 15.6662 11.5043C15.6663 11.9628 15.5711 12.4168 15.3861 12.8396C15.2011 13.2625 14.9301 13.6457 14.5889 13.9671C14.2477 14.2884 13.8432 14.5413 13.3989 14.711C12.9546 14.8807 12.4795 14.9639 12.0013 14.9556C11.0465 14.9556 10.1309 14.5919 9.45582 13.9447C8.78073 13.2975 8.40146 12.4197 8.40146 11.5043C8.40146 10.589 8.78073 9.71118 9.45582 9.06395C10.1309 8.41672 11.0465 8.05311 12.0013 8.05311L12.0001 8.05427ZM18.2998 4.02784C17.9126 4.04269 17.5465 4.20057 17.2781 4.46841C17.0097 4.73625 16.8598 5.09327 16.8598 5.4647C16.8598 5.83613 17.0097 6.19315 17.2781 6.46098C17.5465 6.72882 17.9126 6.8867 18.2998 6.90156C18.6976 6.90156 19.0791 6.75005 19.3604 6.48037C19.6417 6.2107 19.7997 5.84493 19.7997 5.46355C19.7997 5.08216 19.6417 4.7164 19.3604 4.44672C19.0791 4.17704 18.6976 4.02554 18.2998 4.02554V4.02784Z" fill="#343A40"/>
</g>
<defs>
<clipPath id="clip0_1_376">
<rect width="24" height="23.0089" fill="white"/>
</clipPath>
</defs>
</svg>
