<svg width="20" height="15" viewBox="0 0 20 15" fill="none" xmlns="http://www.w3.org/2000/svg">
<path fill-rule="evenodd" clip-rule="evenodd" d="M12.253 1.51968C12.2198 1.5051 12.1836 1.49907 12.1475 1.50217C12.1114 1.50526 12.0767 1.51737 12.0466 1.53738C12.0164 1.55739 11.9917 1.58467 11.9749 1.6167C11.958 1.64873 11.9494 1.68448 11.95 1.72068V3.45018C11.95 3.6491 11.871 3.83986 11.7303 3.98051C11.5897 4.12117 11.3989 4.20018 11.2 4.20018C10.1995 4.20018 8.18048 4.20768 6.24998 5.43318C4.77398 6.36918 3.26498 8.07318 2.35748 11.2472C3.88748 9.77268 5.63498 8.97318 7.16498 8.55018C8.10541 8.29045 9.0719 8.1365 10.0465 8.09118C10.4454 8.07366 10.845 8.07766 11.2435 8.10318H11.263L11.2705 8.10468H11.272L11.2 8.85018L11.275 8.10318C11.4601 8.12179 11.6317 8.20854 11.7565 8.34659C11.8812 8.48464 11.9502 8.66412 11.95 8.85018V10.5797C11.95 10.7417 12.115 10.8437 12.253 10.7807L18.229 6.38118C18.2493 6.36612 18.2703 6.3521 18.292 6.33918C18.3246 6.31958 18.3516 6.29188 18.3703 6.25876C18.3891 6.22564 18.3989 6.18823 18.3989 6.15018C18.3989 6.11213 18.3891 6.07473 18.3703 6.04161C18.3516 6.00849 18.3246 5.98078 18.292 5.96118C18.2703 5.94827 18.2493 5.93425 18.229 5.91918L12.253 1.51968ZM10.45 9.57918C9.47485 9.59606 8.50573 9.73566 7.56548 9.99468C5.57648 10.5467 3.22148 11.7962 1.65548 14.6147C1.5708 14.7667 1.43586 14.8846 1.2738 14.9481C1.11174 15.0116 0.932641 15.0167 0.767205 14.9626C0.601769 14.9086 0.460292 14.7986 0.367022 14.6517C0.273753 14.5047 0.234496 14.3299 0.255982 14.1572C0.951982 8.59218 3.08498 5.66418 5.44598 4.16718C7.31348 2.98218 9.23648 2.75418 10.45 2.71068V1.72068C10.4498 1.41179 10.5331 1.10858 10.6909 0.843054C10.8488 0.577529 11.0754 0.359534 11.3468 0.21207C11.6182 0.0646065 11.9244 -0.00685783 12.2331 0.00521837C12.5417 0.0172946 12.8414 0.112463 13.1005 0.280683L19.0915 4.69068C19.3392 4.84529 19.5434 5.06038 19.685 5.31571C19.8266 5.57104 19.9009 5.85821 19.9009 6.15018C19.9009 6.44216 19.8266 6.72932 19.685 6.98465C19.5434 7.23999 19.3392 7.45508 19.0915 7.60968L13.1005 12.0197C12.8414 12.1879 12.5417 12.2831 12.2331 12.2951C11.9244 12.3072 11.6182 12.2358 11.3468 12.0883C11.0754 11.9408 10.8488 11.7228 10.6909 11.4573C10.5331 11.1918 10.4498 10.8886 10.45 10.5797V9.57918Z" fill="black"/>
</svg>
