<svg width="24" height="19" viewBox="0 0 24 19" fill="none" xmlns="http://www.w3.org/2000/svg">
<path d="M24 2.37172C23.1015 2.7528 22.1487 3.00314 21.1731 3.11447C22.201 2.52427 22.9701 1.59595 23.3371 0.502442C22.3717 1.05329 21.3132 1.43934 20.2111 1.64817C19.4701 0.888014 18.4879 0.383877 17.4171 0.214131C16.3464 0.0443844 15.2472 0.21854 14.2903 0.709522C13.3335 1.2005 12.5727 1.9808 12.1261 2.92911C11.6796 3.87742 11.5723 4.94061 11.821 5.95338C9.86296 5.85946 7.94737 5.37175 6.19867 4.52192C4.44998 3.67209 2.90727 2.47915 1.67072 1.02056C1.23307 1.74124 1.00309 2.56049 1.00432 3.39441C1.00432 5.03116 1.87441 6.47714 3.19427 7.32374C2.4125 7.3001 1.64794 7.09769 0.964286 6.73338V6.79095C0.96425 7.88122 1.35757 8.93794 2.07755 9.78188C2.79752 10.6258 3.79982 11.205 4.91444 11.4213C4.18875 11.61 3.42774 11.6378 2.68917 11.5025C3.00344 12.441 3.61603 13.2617 4.44113 13.8497C5.26623 14.4378 6.26251 14.7636 7.29042 14.7817C6.26887 15.5509 5.09916 16.1195 3.8482 16.455C2.59725 16.7904 1.28959 16.8862 0 16.7367C2.25085 18.1245 4.871 18.8612 7.5471 18.8589C16.606 18.8589 21.5581 11.6651 21.5581 5.42624C21.5581 5.22306 21.5534 5.01761 21.544 4.81556C22.5075 4.14772 23.3392 3.31942 24 2.37172Z" fill="#343A40"/>
</svg>
